/* XPM */
static char * loading_center_xpm[] = {
"271 24 2 1",
" 	c #00000000",
".	c #ff000000",
"                                                                                                                                                                                                                                                                               ",
"                                                                                                                                                                                                                                                                               ",
"                                                                                                                                                                                                                                                                               ",
"                                                                                                                                                                                                                                                                               ",
"           ........................................................................................................................................................................................................................................................            ",
"        ...............................................................................................................................................................................................................................................................        ",
"       .................................................................................................................................................................................................................................................................       ",
"      ...................................................................................................................................................................................................................................................................      ",
"      ...................................................................................................................................................................................................................................................................      ",
"     .....................................................................................................................................................................................................................................................................     ",
"     .....................................................................................................................................................................................................................................................................     ",
"     .....................................................................................................................................................................................................................................................................     ",
"     .....................................................................................................................................................................................................................................................................     ",
"     .....................................................................................................................................................................................................................................................................     ",
"     .....................................................................................................................................................................................................................................................................     ",
"      ...................................................................................................................................................................................................................................................................      ",
"      ...................................................................................................................................................................................................................................................................      ",
"       .................................................................................................................................................................................................................................................................       ",
"        ...............................................................................................................................................................................................................................................................        ",
"           .........................................................................................................................................................................................................................................................           ",
"                                                                                                                                                                                                                                                                               ",
"                                                                                                                                                                                                                                                                               ",
"                                                                                                                                                                                                                                                                               ",
"                                                                                                                                                                                                                                                                               "};
