/* XPM */
static char * button_xpm[] = {
"200 80 2 1",
" 	c #CBCBCB",
".	c #DFDFDF",
"                                                                                                                                                                                                        ",
"                                                                                                                                                                                                        ",
"                                                                                                                                                                                                        ",
"                                                                                                                                                                                                        ",
"    ................................................................................................................................................................................................    ",
"    ................................................................................................................................................................................................    ",
"    ................................................................................................................................................................................................    ",
"    ................................................................................................................................................................................................    ",
"    ................................................................................................................................................................................................    ",
"    ................................................................................................................................................................................................    ",
"    ................................................................................................................................................................................................    ",
"    ................................................................................................................................................................................................    ",
"    ................................................................................................................................................................................................    ",
"    ................................................................................................................................................................................................    ",
"    ................................................................................................................................................................................................    ",
"    ................................................................................................................................................................................................    ",
"    ................................................................................................................................................................................................    ",
"    ................................................................................................................................................................................................    ",
"    ................................................................................................................................................................................................    ",
"    ................................................................................................................................................................................................    ",
"    ................................................................................................................................................................................................    ",
"    ................................................................................................................................................................................................    ",
"    ................................................................................................................................................................................................    ",
"    ................................................................................................................................................................................................    ",
"    ................................................................................................................................................................................................    ",
"    ................................................................................................................................................................................................    ",
"    ................................................................................................................................................................................................    ",
"    ................................................................................................................................................................................................    ",
"    ................................................................................................................................................................................................    ",
"    ................................................................................................................................................................................................    ",
"    ................................................................................................................................................................................................    ",
"    ................................................................................................................................................................................................    ",
"    ................................................................................................................................................................................................    ",
"    ................................................................................................................................................................................................    ",
"    ................................................................................................................................................................................................    ",
"    ................................................................................................................................................................................................    ",
"    ................................................................................................................................................................................................    ",
"    ................................................................................................................................................................................................    ",
"    ................................................................................................................................................................................................    ",
"    ................................................................................................................................................................................................    ",
"    ................................................................................................................................................................................................    ",
"    ................................................................................................................................................................................................    ",
"    ................................................................................................................................................................................................    ",
"    ................................................................................................................................................................................................    ",
"    ................................................................................................................................................................................................    ",
"    ................................................................................................................................................................................................    ",
"    ................................................................................................................................................................................................    ",
"    ................................................................................................................................................................................................    ",
"    ................................................................................................................................................................................................    ",
"    ................................................................................................................................................................................................    ",
"    ................................................................................................................................................................................................    ",
"    ................................................................................................................................................................................................    ",
"    ................................................................................................................................................................................................    ",
"    ................................................................................................................................................................................................    ",
"    ................................................................................................................................................................................................    ",
"    ................................................................................................................................................................................................    ",
"    ................................................................................................................................................................................................    ",
"    ................................................................................................................................................................................................    ",
"    ................................................................................................................................................................................................    ",
"    ................................................................................................................................................................................................    ",
"    ................................................................................................................................................................................................    ",
"    ................................................................................................................................................................................................    ",
"    ................................................................................................................................................................................................    ",
"    ................................................................................................................................................................................................    ",
"    ................................................................................................................................................................................................    ",
"    ................................................................................................................................................................................................    ",
"    ................................................................................................................................................................................................    ",
"    ................................................................................................................................................................................................    ",
"    ................................................................................................................................................................................................    ",
"    ................................................................................................................................................................................................    ",
"    ................................................................................................................................................................................................    ",
"    ................................................................................................................................................................................................    ",
"    ................................................................................................................................................................................................    ",
"    ................................................................................................................................................................................................    ",
"    ................................................................................................................................................................................................    ",
"    ................................................................................................................................................................................................    ",
"                                                                                                                                                                                                        ",
"                                                                                                                                                                                                        ",
"                                                                                                                                                                                                        ",
"                                                                                                                                                                                                        "};
