/* XPM */
static char *squirrel_run0_31676076112[] = {
/* columns rows colors chars-per-pixel */
"42 34 5 1 ",
"  c #0",
". c #FF2F2F2E",
"X c #FF694129",
"o c #FF825235",
"O c #FFA67354",
/* pixels */
" ........                                 ",
" ........                                 ",
" ..OOOOOO..                               ",
" ..OOOOOO..                               ",
"   ..OOOOoo..                             ",
"   ..OOOOoo..                             ",
"   ..OOOOoooo..                           ",
"   ..OOOOoooo..                           ",
"   ..OOooooooXX..                         ",
"   ..OOooooooXX..                         ",
"   ..ooooooXXXX..                         ",
"   ..ooooooXXXX..                         ",
"     ..ooXXXXXXXX..                       ",
"     ..ooXXXXXXXX..                       ",
"     ..XXXXXXXX......      ....  ....     ",
"     ..XXXXXXXX......      ....  ....     ",
"     ..XXXXXX..XXoooo..    ..OO..XX..     ",
"     ..XXXXXX..XXoooo..    ..OO..XX..     ",
"       ..XX..XXoooooooo......OOoooo..     ",
"       ..XX..XXoooooooo......OOoooo..     ",
"         ....ooooooooooooXX..oo..oooo..   ",
"         ....ooooooooooooXX..oo..oooo..   ",
"           ..oooo..oooooooo..ooooooooOO.. ",
"           ..oooo..oooooooo..ooooooooOO.. ",
"           ..XXoo..OOOOoooooo............ ",
"           ..XXoo..OOOOoooooo............ ",
"         ..XXoo........OOOO....XX..       ",
"         ..XXoo........OOOO....XX..       ",
"         ......        ....oo....XX..     ",
"         ......        ....oo....XX..     ",
"                           ..oo......     ",
"                           ..oo......     ",
"                             ....         ",
"                             ....         "
};
