/* XPM */
static char *squirrel_run0_51676076112[] = {
/* columns rows colors chars-per-pixel */
"42 34 5 1 ",
"  c #0",
". c #FF2F2F2E",
"X c #FF694129",
"o c #FF825235",
"O c #FFA67354",
/* pixels */
"                                          ",
"                                          ",
"                                          ",
"                                          ",
"              ....                        ",
"              ....                        ",
"            ..OO..                        ",
"            ..OO..                        ",
"        ....OOOO..                        ",
"        ....OOOO..                        ",
"      ..OOOOOOOO..                        ",
"      ..OOOOOOOO..                        ",
"    ..ooooOOOOoo..        ....  ....      ",
"    ..ooooOOOOoo..        ....  ....      ",
"  ..oooooooooo..          ..OO..XX..      ",
"  ..oooooooooo..          ..OO..XX..      ",
"  ..ooXXXXXXoo..      ......OOoooo..      ",
"  ..ooXXXXXXoo..      ......OOoooo..      ",
"  ..XXXXXXXXXX........ooXX..oo..oooo..    ",
"  ..XXXXXXXXXX........ooXX..oo..oooo..    ",
"  ..XXXXXXXX..XXoooooooooo..ooooooooOO..  ",
"  ..XXXXXXXX..XXoooooooooo..ooooooooOO..  ",
"    ..XXXX..XXooooooooOOoooo............  ",
"    ..XXXX..XXooooooooOOoooo............  ",
"      ......oooo..ooOO..oo..XX..          ",
"      ......oooo..ooOO..oo..XX..          ",
"          ..oooooo....oo..XX..            ",
"          ..oooooo....oo..XX..            ",
"            ..XXoo......  ....            ",
"            ..XXoo......  ....            ",
"              ..XXoo..                    ",
"              ..XXoo..                    ",
"              ........                    ",
"              ........                    "
};
