/* XPM */
static char *squirrel_run0_41676076112[] = {
/* columns rows colors chars-per-pixel */
"42 34 5 1 ",
"  c #0",
". c #FF2F2F2E",
"X c #FF694129",
"o c #FF825235",
"O c #FFA67354",
/* pixels */
"                                          ",
"                                          ",
"   ......                                 ",
"   ......                                 ",
"   ..OOOO..                               ",
"   ..OOOO..                               ",
"     ..OOOO..                             ",
"     ..OOOO..                             ",
"     ..OOOOOO..                           ",
"     ..OOOOOO..                           ",
"       ..OOoo..                           ",
"       ..OOoo..                           ",
"       ..oooooo..                         ",
"       ..oooooo..                         ",
"     ..ooooXXXX..                         ",
"     ..ooooXXXX..                         ",
"     ..ooXXXXXX..        ....  ....       ",
"     ..ooXXXXXX..        ....  ....       ",
"   ..XXXXXXXX........    ..OO..XX..       ",
"   ..XXXXXXXX........    ..OO..XX..       ",
"   ..XXXXXX..XXooooXX......OOoooo..       ",
"   ..XXXXXX..XXooooXX......OOoooo..       ",
"     ..XX..XXoooooooooooo..oo..oooo..     ",
"     ..XX..XXoooooooooooo..oo..oooo..     ",
"       ....oooo..oooooooo..ooooooooOO..   ",
"       ....oooo..oooooooo..ooooooooOO..   ",
"         ..oooooo..OOOOoooo............   ",
"         ..oooooo..OOOOoooo............   ",
"         ..XXoo....OO..oo..XX..           ",
"         ..XXoo....OO..oo..XX..           ",
"           ..XXoo......oo..XX..           ",
"           ..XXoo......oo..XX..           ",
"           ........  ....  ....           ",
"           ........  ....  ....           "
};
