/* XPM */
static char *squirrel_run0_01676076112[] = {
/* columns rows colors chars-per-pixel */
"42 34 5 1 ",
"  c #0",
". c #FF2F2F2E",
"X c #FF694129",
"o c #FF825235",
"O c #FFA67354",
/* pixels */
"                                          ",
"                                          ",
"                                          ",
"                                          ",
" ....                                     ",
" ....                                     ",
" ..OO....                                 ",
" ..OO....                                 ",
" ..OOOOoo..                               ",
" ..OOOOoo..                               ",
" ..OOOOoooo..                             ",
" ..OOOOoooo..                             ",
" ..OOooooXXXX..                           ",
" ..OOooooXXXX..                           ",
"   ..ooooXXXXXX..                         ",
"   ..ooooXXXXXX..                         ",
"   ..ooXXXXXXXX..          ....  ....     ",
"   ..ooXXXXXXXX..          ....  ....     ",
"   ..XXXXXXXXXX........    ..OO..XX..     ",
"   ..XXXXXXXXXX........    ..OO..XX..     ",
"   ..XXXXXXXX..XXooooXX......OOoooo..     ",
"   ..XXXXXXXX..XXooooXX......OOoooo..     ",
"     ..XXXX..XXoooooooooooo..oo..oooo..   ",
"     ..XXXX..XXoooooooooooo..oo..oooo..   ",
"       ......oooo..oooooooo..ooooooooOO.. ",
"       ......oooo..oooooooo..ooooooooOO.. ",
"           ..oooooo..OOOOoooo............ ",
"           ..oooooo..OOOOoooo............ ",
"           ..XXoo....OO..oo..XX..         ",
"           ..XXoo....OO..oo..XX..         ",
"             ..XXoo......oo..XX..         ",
"             ..XXoo......oo..XX..         ",
"             ........  ....  ....         ",
"             ........  ....  ....         "
};
