/* XPM */
static char *squirrel_run0_21676076112[] = {
/* columns rows colors chars-per-pixel */
"42 34 5 1 ",
"  c #0",
". c #FF2F2F2E",
"X c #FF694129",
"o c #FF825235",
"O c #FFA67354",
/* pixels */
"                                          ",
"                                          ",
"                                          ",
"                                          ",
"........                                  ",
"........                                  ",
"..OOOOOO....                              ",
"..OOOOOO....                              ",
"  ..OOOOoooo..                            ",
"  ..OOOOoooo..                            ",
"  ..OOOOoooooo..                          ",
"  ..OOOOoooooo..                          ",
"  ..OOooooXXXXXX..                        ",
"  ..OOooooXXXXXX..                        ",
"    ..ooooXXXXXX..          ....  ....    ",
"    ..ooooXXXXXX..          ....  ....    ",
"    ..XXXXXXXXXX......      ..OO..XX..    ",
"    ..XXXXXXXXXX......      ..OO..XX..    ",
"    ..XXXXXXXX..XXoooo........OOoooo..    ",
"    ..XXXXXXXX..XXoooo........OOoooo..    ",
"      ..XXXX..XXooooooooooXX..oo..oooo..  ",
"      ..XXXX..XXooooooooooXX..oo..oooo..  ",
"        ......oooooooooooooo..ooooooooOO..",
"        ......oooooooooooooo..ooooooooOO..",
"            ..oooo..oooooooooo............",
"            ..oooo..oooooooooo............",
"            ..XXoo..OOOOOOOO....XX..      ",
"            ..XXoo..OOOOOOOO....XX..      ",
"          ..XXoo............oo....XX..    ",
"          ..XXoo............oo....XX..    ",
"          ......            ..oo......    ",
"          ......            ..oo......    ",
"                              ....        ",
"                              ....        "
};
